<?xml version="1.0" encoding="UTF-8" standalone="no"?>
<!DOCTYPE svg PUBLIC "-//W3C//DTD SVG 1.1//EN"
 "http://www.w3.org/Graphics/SVG/1.1/DTD/svg11.dtd">
<!-- Generated by graphviz version 2.36.0 (20140111.2315)
 -->
<!-- Title: controllers_diagram Pages: 1 -->
<svg width="462pt" height="468pt"
 viewBox="0.00 0.00 462.00 468.00" xmlns="http://www.w3.org/2000/svg" xmlns:xlink="http://www.w3.org/1999/xlink">
<g id="graph0" class="graph" transform="scale(1 1) rotate(0) translate(4 464)">
<title>controllers_diagram</title>
<polygon fill="none" stroke="none" points="-4,4 -4,-464 458,-464 458,4 -4,4"/>
<!-- _diagram_info -->
<g id="node1" class="node"><title>_diagram_info</title>
<text text-anchor="start" x="248" y="-431.6" font-family="Times,serif" font-size="13.00">Controllers diagram</text>
<text text-anchor="start" x="248" y="-417.6" font-family="Times,serif" font-size="13.00">Date: Aug 01 2017 &#45; 05:25</text>
<text text-anchor="start" x="248" y="-403.6" font-family="Times,serif" font-size="13.00">Migration version: 20170620075730</text>
<text text-anchor="start" x="248" y="-389.6" font-family="Times,serif" font-size="13.00">Generated by RailRoady 1.5.3</text>
<text text-anchor="start" x="248" y="-375.6" font-family="Times,serif" font-size="13.00">http://railroady.prestonlee.com</text>
</g>
<!-- CommentsController -->
<g id="node2" class="node"><title>CommentsController</title>
<path fill="none" stroke="black" d="M12,-336.5C12,-336.5 120,-336.5 120,-336.5 126,-336.5 132,-342.5 132,-348.5 132,-348.5 132,-447.5 132,-447.5 132,-453.5 126,-459.5 120,-459.5 120,-459.5 12,-459.5 12,-459.5 6,-459.5 0,-453.5 0,-447.5 0,-447.5 0,-348.5 0,-348.5 0,-342.5 6,-336.5 12,-336.5"/>
<text text-anchor="middle" x="66" y="-444.3" font-family="Times,serif" font-size="14.00">CommentsController</text>
<polyline fill="none" stroke="black" points="0,-436.5 132,-436.5 "/>
<text text-anchor="start" x="8" y="-421.3" font-family="Times,serif" font-size="14.00">create</text>
<text text-anchor="start" x="8" y="-406.3" font-family="Times,serif" font-size="14.00">destroy</text>
<polyline fill="none" stroke="black" points="0,-398.5 132,-398.5 "/>
<polyline fill="none" stroke="black" points="0,-374.5 132,-374.5 "/>
<text text-anchor="start" x="8" y="-359.3" font-family="Times,serif" font-size="14.00">_layout</text>
<text text-anchor="start" x="8" y="-344.3" font-family="Times,serif" font-size="14.00">comment_params</text>
</g>
<!-- ChatroomsController -->
<g id="node3" class="node"><title>ChatroomsController</title>
<path fill="none" stroke="black" d="M12,-112.5C12,-112.5 120,-112.5 120,-112.5 126,-112.5 132,-118.5 132,-124.5 132,-124.5 132,-283.5 132,-283.5 132,-289.5 126,-295.5 120,-295.5 120,-295.5 12,-295.5 12,-295.5 6,-295.5 0,-289.5 0,-283.5 0,-283.5 0,-124.5 0,-124.5 0,-118.5 6,-112.5 12,-112.5"/>
<text text-anchor="middle" x="66" y="-280.3" font-family="Times,serif" font-size="14.00">ChatroomsController</text>
<polyline fill="none" stroke="black" points="0,-272.5 132,-272.5 "/>
<text text-anchor="start" x="8" y="-257.3" font-family="Times,serif" font-size="14.00">create</text>
<text text-anchor="start" x="8" y="-242.3" font-family="Times,serif" font-size="14.00">edit</text>
<text text-anchor="start" x="8" y="-227.3" font-family="Times,serif" font-size="14.00">index</text>
<text text-anchor="start" x="8" y="-212.3" font-family="Times,serif" font-size="14.00">new</text>
<text text-anchor="start" x="8" y="-197.3" font-family="Times,serif" font-size="14.00">show</text>
<text text-anchor="start" x="8" y="-182.3" font-family="Times,serif" font-size="14.00">update</text>
<polyline fill="none" stroke="black" points="0,-174.5 132,-174.5 "/>
<polyline fill="none" stroke="black" points="0,-150.5 132,-150.5 "/>
<text text-anchor="start" x="8" y="-135.3" font-family="Times,serif" font-size="14.00">_layout</text>
<text text-anchor="start" x="8" y="-120.3" font-family="Times,serif" font-size="14.00">chatroom_params</text>
</g>
<!-- PostsController -->
<g id="node4" class="node"><title>PostsController</title>
<path fill="none" stroke="black" d="M172,-128.5C172,-128.5 249,-128.5 249,-128.5 255,-128.5 261,-134.5 261,-140.5 261,-140.5 261,-329.5 261,-329.5 261,-335.5 255,-341.5 249,-341.5 249,-341.5 172,-341.5 172,-341.5 166,-341.5 160,-335.5 160,-329.5 160,-329.5 160,-140.5 160,-140.5 160,-134.5 166,-128.5 172,-128.5"/>
<text text-anchor="middle" x="210.5" y="-326.3" font-family="Times,serif" font-size="14.00">PostsController</text>
<polyline fill="none" stroke="black" points="160,-318.5 261,-318.5 "/>
<text text-anchor="start" x="168" y="-303.3" font-family="Times,serif" font-size="14.00">create</text>
<text text-anchor="start" x="168" y="-288.3" font-family="Times,serif" font-size="14.00">destroy</text>
<text text-anchor="start" x="168" y="-273.3" font-family="Times,serif" font-size="14.00">edit</text>
<text text-anchor="start" x="168" y="-258.3" font-family="Times,serif" font-size="14.00">index</text>
<text text-anchor="start" x="168" y="-243.3" font-family="Times,serif" font-size="14.00">new</text>
<text text-anchor="start" x="168" y="-228.3" font-family="Times,serif" font-size="14.00">show</text>
<text text-anchor="start" x="168" y="-213.3" font-family="Times,serif" font-size="14.00">update</text>
<polyline fill="none" stroke="black" points="160,-205.5 261,-205.5 "/>
<polyline fill="none" stroke="black" points="160,-181.5 261,-181.5 "/>
<text text-anchor="start" x="168" y="-166.3" font-family="Times,serif" font-size="14.00">_layout</text>
<text text-anchor="start" x="168" y="-151.3" font-family="Times,serif" font-size="14.00">post_params</text>
<text text-anchor="start" x="168" y="-136.3" font-family="Times,serif" font-size="14.00">set_post</text>
</g>
<!-- ApplicationController -->
<g id="node5" class="node"><title>ApplicationController</title>
<path fill="none" stroke="black" d="M172,-0.5C172,-0.5 284,-0.5 284,-0.5 290,-0.5 296,-6.5 296,-12.5 296,-12.5 296,-82.5 296,-82.5 296,-88.5 290,-94.5 284,-94.5 284,-94.5 172,-94.5 172,-94.5 166,-94.5 160,-88.5 160,-82.5 160,-82.5 160,-12.5 160,-12.5 160,-6.5 166,-0.5 172,-0.5"/>
<text text-anchor="middle" x="228" y="-79.3" font-family="Times,serif" font-size="14.00">ApplicationController</text>
<polyline fill="none" stroke="black" points="160,-71.5 296,-71.5 "/>
<polyline fill="none" stroke="black" points="160,-47.5 296,-47.5 "/>
<polyline fill="none" stroke="black" points="160,-23.5 296,-23.5 "/>
<text text-anchor="start" x="168" y="-8.3" font-family="Times,serif" font-size="14.00">_layout</text>
</g>
<!-- MessagesController -->
<g id="node6" class="node"><title>MessagesController</title>
<path fill="none" stroke="black" d="M300,-128.5C300,-128.5 401,-128.5 401,-128.5 407,-128.5 413,-134.5 413,-140.5 413,-140.5 413,-224.5 413,-224.5 413,-230.5 407,-236.5 401,-236.5 401,-236.5 300,-236.5 300,-236.5 294,-236.5 288,-230.5 288,-224.5 288,-224.5 288,-140.5 288,-140.5 288,-134.5 294,-128.5 300,-128.5"/>
<text text-anchor="middle" x="350.5" y="-221.3" font-family="Times,serif" font-size="14.00">MessagesController</text>
<polyline fill="none" stroke="black" points="288,-213.5 413,-213.5 "/>
<text text-anchor="start" x="296" y="-198.3" font-family="Times,serif" font-size="14.00">create</text>
<polyline fill="none" stroke="black" points="288,-190.5 413,-190.5 "/>
<polyline fill="none" stroke="black" points="288,-166.5 413,-166.5 "/>
<text text-anchor="start" x="296" y="-151.3" font-family="Times,serif" font-size="14.00">_layout</text>
<text text-anchor="start" x="296" y="-136.3" font-family="Times,serif" font-size="14.00">message_params</text>
</g>
</g>
</svg>
