<?xml version="1.0" encoding="UTF-8" standalone="no"?>
<!DOCTYPE svg PUBLIC "-//W3C//DTD SVG 1.1//EN"
 "http://www.w3.org/Graphics/SVG/1.1/DTD/svg11.dtd">
<!-- Generated by graphviz version 2.36.0 (20140111.2315)
 -->
<!-- Title: models_diagram Pages: 1 -->
<svg width="467pt" height="230pt"
 viewBox="0.00 0.00 467.00 230.00" xmlns="http://www.w3.org/2000/svg" xmlns:xlink="http://www.w3.org/1999/xlink">
<g id="graph0" class="graph" transform="scale(1 1) rotate(0) translate(4 226)">
<title>models_diagram</title>
<polygon fill="none" stroke="none" points="-4,4 -4,-226 463,-226 463,4 -4,4"/>
<!-- _diagram_info -->
<g id="node1" class="node"><title>_diagram_info</title>
<text text-anchor="start" x="8" y="-207.6" font-family="Times,serif" font-size="13.00">Models diagram</text>
<text text-anchor="start" x="8" y="-193.6" font-family="Times,serif" font-size="13.00">Date: Aug 01 2017 &#45; 05:25</text>
<text text-anchor="start" x="8" y="-179.6" font-family="Times,serif" font-size="13.00">Migration version: 20170620075730</text>
<text text-anchor="start" x="8" y="-165.6" font-family="Times,serif" font-size="13.00">Generated by RailRoady 1.5.3</text>
<text text-anchor="start" x="8" y="-151.6" font-family="Times,serif" font-size="13.00">http://railroady.prestonlee.com</text>
</g>
<!-- User -->
<g id="node2" class="node"><title>User</title>
<ellipse fill="none" stroke="black" cx="259" cy="-183" rx="26.949" ry="18"/>
<text text-anchor="middle" x="259" y="-179.3" font-family="Times,serif" font-size="14.00">User</text>
</g>
<!-- Message -->
<g id="node3" class="node"><title>Message</title>
<ellipse fill="none" stroke="black" cx="169" cy="-18" rx="42.3701" ry="18"/>
<text text-anchor="middle" x="169" y="-14.3" font-family="Times,serif" font-size="14.00">Message</text>
</g>
<!-- User&#45;&gt;Message -->
<g id="edge3" class="edge"><title>User&#45;&gt;Message</title>
<path fill="none" stroke="#f4c63b" d="M240.214,-161.065C234.598,-155.27 228.263,-149.16 222,-144 199.452,-125.423 180.894,-133.7 167,-108 156.753,-89.0458 158.26,-64.3409 161.758,-45.7701"/>
<ellipse fill="none" stroke="#f4c63b" cx="243.24" cy="-164.264" rx="4.00002" ry="4.00002"/>
<polygon fill="#f4c63b" stroke="#f4c63b" points="161.78,-45.6684 168.305,-36.8553 162.844,-40.783 163.908,-35.8975 163.908,-35.8975 163.908,-35.8975 162.844,-40.783 159.511,-34.9397 161.78,-45.6684 161.78,-45.6684"/>
</g>
<!-- Chatroom -->
<g id="node4" class="node"><title>Chatroom</title>
<ellipse fill="none" stroke="black" cx="222" cy="-90" rx="46.2191" ry="18"/>
<text text-anchor="middle" x="222" y="-86.3" font-family="Times,serif" font-size="14.00">Chatroom</text>
</g>
<!-- User&#45;&gt;Chatroom -->
<g id="edge4" class="edge"><title>User&#45;&gt;Chatroom</title>
<path fill="none" stroke="#250cfb" d="M248.346,-155.797C243.449,-143.752 237.651,-129.493 232.743,-117.422"/>
<polygon fill="#250cfb" stroke="#250cfb" points="248.447,-156.046 248.045,-167.004 250.33,-160.677 252.214,-165.309 252.214,-165.309 252.214,-165.309 250.33,-160.677 256.382,-163.614 248.447,-156.046 248.447,-156.046"/>
<polygon fill="#250cfb" stroke="#250cfb" points="232.635,-117.157 233.037,-106.198 230.752,-112.525 228.869,-107.893 228.869,-107.893 228.869,-107.893 230.752,-112.525 224.7,-109.588 232.635,-117.157 232.635,-117.157"/>
</g>
<!-- Comment -->
<g id="node6" class="node"><title>Comment</title>
<ellipse fill="none" stroke="black" cx="323" cy="-18" rx="46.2191" ry="18"/>
<text text-anchor="middle" x="323" y="-14.3" font-family="Times,serif" font-size="14.00">Comment</text>
</g>
<!-- User&#45;&gt;Comment -->
<g id="edge2" class="edge"><title>User&#45;&gt;Comment</title>
<path fill="none" stroke="#5fa2b1" d="M268.427,-157.992C280.234,-127.92 300.396,-76.5699 312.629,-45.4129"/>
<ellipse fill="none" stroke="#5fa2b1" cx="266.951" cy="-161.75" rx="4.00001" ry="4.00001"/>
<polygon fill="#5fa2b1" stroke="#5fa2b1" points="312.647,-45.3673 320.491,-37.7038 314.475,-40.7132 316.302,-36.0591 316.302,-36.0591 316.302,-36.0591 314.475,-40.7132 312.113,-34.4144 312.647,-45.3673 312.647,-45.3673"/>
</g>
<!-- Post -->
<g id="node7" class="node"><title>Post</title>
<ellipse fill="none" stroke="black" cx="351" cy="-90" rx="27" ry="18"/>
<text text-anchor="middle" x="351" y="-86.3" font-family="Times,serif" font-size="14.00">Post</text>
</g>
<!-- User&#45;&gt;Post -->
<g id="edge1" class="edge"><title>User&#45;&gt;Post</title>
<path fill="none" stroke="#beab85" d="M278.726,-161.502C284.277,-155.799 290.343,-149.628 296,-144 306.638,-133.417 318.617,-121.835 328.674,-112.204"/>
<ellipse fill="none" stroke="#beab85" cx="275.733" cy="-164.587" rx="4.00002" ry="4.00002"/>
<polygon fill="#beab85" stroke="#beab85" points="328.704,-112.176 339.043,-108.523 332.319,-108.723 335.935,-105.269 335.935,-105.269 335.935,-105.269 332.319,-108.723 332.827,-102.015 328.704,-112.176 328.704,-112.176"/>
</g>
<!-- Chatroom&#45;&gt;Message -->
<g id="edge5" class="edge"><title>Chatroom&#45;&gt;Message</title>
<path fill="none" stroke="#711efb" d="M204.444,-65.8123C199.04,-58.6754 193.074,-50.7961 187.603,-43.5697"/>
<ellipse fill="none" stroke="#711efb" cx="207.025" cy="-69.2219" rx="4.00002" ry="4.00002"/>
<polygon fill="#711efb" stroke="#711efb" points="187.507,-43.4425 185.058,-32.7536 184.488,-39.4562 181.47,-35.4699 181.47,-35.4699 181.47,-35.4699 184.488,-39.4562 177.882,-38.1863 187.507,-43.4425 187.507,-43.4425"/>
</g>
<!-- ApplicationRecord -->
<g id="node5" class="node"><title>ApplicationRecord</title>
<ellipse fill="none" stroke="black" cx="382" cy="-183" rx="77.0154" ry="18"/>
<text text-anchor="middle" x="382" y="-179.3" font-family="Times,serif" font-size="14.00">ApplicationRecord</text>
</g>
<!-- Post&#45;&gt;Comment -->
<g id="edge6" class="edge"><title>Post&#45;&gt;Comment</title>
<path fill="none" stroke="#cd6508" d="M341.311,-64.7779C338.818,-58.544 336.122,-51.8046 333.585,-45.4634"/>
<ellipse fill="none" stroke="#cd6508" cx="342.879" cy="-68.6971" rx="4.00001" ry="4.00001"/>
<polygon fill="#cd6508" stroke="#cd6508" points="333.496,-45.241 333.961,-34.2849 331.639,-40.5986 329.782,-35.9562 329.782,-35.9562 329.782,-35.9562 331.639,-40.5986 325.604,-37.6275 333.496,-45.241 333.496,-45.241"/>
</g>
</g>
</svg>
