<?xml version="1.0" encoding="UTF-8" standalone="no"?>
<!DOCTYPE svg PUBLIC "-//W3C//DTD SVG 1.1//EN"
 "http://www.w3.org/Graphics/SVG/1.1/DTD/svg11.dtd">
<!-- Generated by graphviz version 2.36.0 (20140111.2315)
 -->
<!-- Title: models_diagram Pages: 1 -->
<svg width="744pt" height="552pt"
 viewBox="0.00 0.00 744.00 552.00" xmlns="http://www.w3.org/2000/svg" xmlns:xlink="http://www.w3.org/1999/xlink">
<g id="graph0" class="graph" transform="scale(1 1) rotate(0) translate(4 548)">
<title>models_diagram</title>
<polygon fill="none" stroke="none" points="-4,4 -4,-548 740,-548 740,4 -4,4"/>
<!-- _diagram_info -->
<g id="node1" class="node"><title>_diagram_info</title>
<text text-anchor="start" x="8" y="-454.6" font-family="Times,serif" font-size="13.00">Models diagram</text>
<text text-anchor="start" x="8" y="-440.6" font-family="Times,serif" font-size="13.00">Date: Aug 01 2017 &#45; 05:25</text>
<text text-anchor="start" x="8" y="-426.6" font-family="Times,serif" font-size="13.00">Migration version: 20170620075730</text>
<text text-anchor="start" x="8" y="-412.6" font-family="Times,serif" font-size="13.00">Generated by RailRoady 1.5.3</text>
<text text-anchor="start" x="8" y="-398.6" font-family="Times,serif" font-size="13.00">http://railroady.prestonlee.com</text>
</g>
<!-- User -->
<g id="node2" class="node"><title>User</title>
<path fill="none" stroke="black" d="M244.5,-317C244.5,-317 533.5,-317 533.5,-317 539.5,-317 545.5,-323 545.5,-329 545.5,-329 545.5,-531 545.5,-531 545.5,-537 539.5,-543 533.5,-543 533.5,-543 244.5,-543 244.5,-543 238.5,-543 232.5,-537 232.5,-531 232.5,-531 232.5,-329 232.5,-329 232.5,-323 238.5,-317 244.5,-317"/>
<text text-anchor="middle" x="389" y="-527.8" font-family="Times,serif" font-size="14.00">User</text>
<polyline fill="none" stroke="black" points="232.5,-520 545.5,-520 "/>
<text text-anchor="start" x="240.5" y="-504.8" font-family="Times,serif" font-size="14.00">id :integer</text>
<text text-anchor="start" x="240.5" y="-489.8" font-family="Times,serif" font-size="14.00">email :character varying</text>
<text text-anchor="start" x="240.5" y="-474.8" font-family="Times,serif" font-size="14.00">encrypted_password :character varying</text>
<text text-anchor="start" x="240.5" y="-459.8" font-family="Times,serif" font-size="14.00">reset_password_token :character varying</text>
<text text-anchor="start" x="240.5" y="-444.8" font-family="Times,serif" font-size="14.00">reset_password_sent_at :timestamp without time zone</text>
<text text-anchor="start" x="240.5" y="-429.8" font-family="Times,serif" font-size="14.00">remember_created_at :timestamp without time zone</text>
<text text-anchor="start" x="240.5" y="-414.8" font-family="Times,serif" font-size="14.00">sign_in_count :integer</text>
<text text-anchor="start" x="240.5" y="-399.8" font-family="Times,serif" font-size="14.00">current_sign_in_at :timestamp without time zone</text>
<text text-anchor="start" x="240.5" y="-384.8" font-family="Times,serif" font-size="14.00">last_sign_in_at :timestamp without time zone</text>
<text text-anchor="start" x="240.5" y="-369.8" font-family="Times,serif" font-size="14.00">current_sign_in_ip :character varying</text>
<text text-anchor="start" x="240.5" y="-354.8" font-family="Times,serif" font-size="14.00">last_sign_in_ip :character varying</text>
<text text-anchor="start" x="240.5" y="-339.8" font-family="Times,serif" font-size="14.00">created_at :timestamp without time zone</text>
<text text-anchor="start" x="240.5" y="-324.8" font-family="Times,serif" font-size="14.00">updated_at :timestamp without time zone</text>
</g>
<!-- Message -->
<g id="node3" class="node"><title>Message</title>
<path fill="none" stroke="black" d="M73,-0.5C73,-0.5 293,-0.5 293,-0.5 299,-0.5 305,-6.5 305,-12.5 305,-12.5 305,-109.5 305,-109.5 305,-115.5 299,-121.5 293,-121.5 293,-121.5 73,-121.5 73,-121.5 67,-121.5 61,-115.5 61,-109.5 61,-109.5 61,-12.5 61,-12.5 61,-6.5 67,-0.5 73,-0.5"/>
<text text-anchor="middle" x="183" y="-106.3" font-family="Times,serif" font-size="14.00">Message</text>
<polyline fill="none" stroke="black" points="61,-98.5 305,-98.5 "/>
<text text-anchor="start" x="69" y="-83.3" font-family="Times,serif" font-size="14.00">id :integer</text>
<text text-anchor="start" x="69" y="-68.3" font-family="Times,serif" font-size="14.00">content :character varying</text>
<text text-anchor="start" x="69" y="-53.3" font-family="Times,serif" font-size="14.00">user_id :integer</text>
<text text-anchor="start" x="69" y="-38.3" font-family="Times,serif" font-size="14.00">chatroom_id :integer</text>
<text text-anchor="start" x="69" y="-23.3" font-family="Times,serif" font-size="14.00">created_at :timestamp without time zone</text>
<text text-anchor="start" x="69" y="-8.3" font-family="Times,serif" font-size="14.00">updated_at :timestamp without time zone</text>
</g>
<!-- User&#45;&gt;Message -->
<g id="edge3" class="edge"><title>User&#45;&gt;Message</title>
<path fill="none" stroke="#8a91f2" d="M225.83,-317.834C203.251,-300.92 186.487,-286.826 183,-280 159.789,-234.566 161.023,-176.532 167.394,-131.767"/>
<ellipse fill="none" stroke="#8a91f2" cx="229.135" cy="-320.29" rx="4.00002" ry="4.00002"/>
<polygon fill="#8a91f2" stroke="#8a91f2" points="167.399,-131.733 173.366,-122.533 168.159,-126.791 168.919,-121.849 168.919,-121.849 168.919,-121.849 168.159,-126.791 164.471,-121.165 167.399,-131.733 167.399,-131.733"/>
</g>
<!-- Chatroom -->
<g id="node4" class="node"><title>Chatroom</title>
<path fill="none" stroke="black" d="M204,-166C204,-166 424,-166 424,-166 430,-166 436,-172 436,-178 436,-178 436,-260 436,-260 436,-266 430,-272 424,-272 424,-272 204,-272 204,-272 198,-272 192,-266 192,-260 192,-260 192,-178 192,-178 192,-172 198,-166 204,-166"/>
<text text-anchor="middle" x="314" y="-256.8" font-family="Times,serif" font-size="14.00">Chatroom</text>
<polyline fill="none" stroke="black" points="192,-249 436,-249 "/>
<text text-anchor="start" x="200" y="-233.8" font-family="Times,serif" font-size="14.00">id :integer</text>
<text text-anchor="start" x="200" y="-218.8" font-family="Times,serif" font-size="14.00">topic :character varying</text>
<text text-anchor="start" x="200" y="-203.8" font-family="Times,serif" font-size="14.00">created_at :timestamp without time zone</text>
<text text-anchor="start" x="200" y="-188.8" font-family="Times,serif" font-size="14.00">updated_at :timestamp without time zone</text>
<text text-anchor="start" x="200" y="-173.8" font-family="Times,serif" font-size="14.00">slug :character varying</text>
</g>
<!-- User&#45;&gt;Chatroom -->
<g id="edge4" class="edge"><title>User&#45;&gt;Chatroom</title>
<path fill="none" stroke="#06022b" d="M345.361,-307.392C342.187,-298.548 339.074,-289.873 336.115,-281.628"/>
<polygon fill="#06022b" stroke="#06022b" points="345.378,-307.44 344.52,-318.372 347.067,-312.146 348.756,-316.852 348.756,-316.852 348.756,-316.852 347.067,-312.146 352.991,-315.332 345.378,-307.44 345.378,-307.44"/>
<polygon fill="#06022b" stroke="#06022b" points="336.096,-281.575 336.954,-270.643 334.408,-276.869 332.719,-272.163 332.719,-272.163 332.719,-272.163 334.408,-276.869 328.483,-273.683 336.096,-281.575 336.096,-281.575"/>
</g>
<!-- Comment -->
<g id="node6" class="node"><title>Comment</title>
<path fill="none" stroke="black" d="M429,-0.5C429,-0.5 649,-0.5 649,-0.5 655,-0.5 661,-6.5 661,-12.5 661,-12.5 661,-109.5 661,-109.5 661,-115.5 655,-121.5 649,-121.5 649,-121.5 429,-121.5 429,-121.5 423,-121.5 417,-115.5 417,-109.5 417,-109.5 417,-12.5 417,-12.5 417,-6.5 423,-0.5 429,-0.5"/>
<text text-anchor="middle" x="539" y="-106.3" font-family="Times,serif" font-size="14.00">Comment</text>
<polyline fill="none" stroke="black" points="417,-98.5 661,-98.5 "/>
<text text-anchor="start" x="425" y="-83.3" font-family="Times,serif" font-size="14.00">id :integer</text>
<text text-anchor="start" x="425" y="-68.3" font-family="Times,serif" font-size="14.00">post_id :integer</text>
<text text-anchor="start" x="425" y="-53.3" font-family="Times,serif" font-size="14.00">content :text</text>
<text text-anchor="start" x="425" y="-38.3" font-family="Times,serif" font-size="14.00">created_at :timestamp without time zone</text>
<text text-anchor="start" x="425" y="-23.3" font-family="Times,serif" font-size="14.00">updated_at :timestamp without time zone</text>
<text text-anchor="start" x="425" y="-8.3" font-family="Times,serif" font-size="14.00">user_id :integer</text>
</g>
<!-- User&#45;&gt;Comment -->
<g id="edge2" class="edge"><title>User&#45;&gt;Comment</title>
<path fill="none" stroke="#b34ee6" d="M434.64,-309.391C438.215,-299.473 441.711,-289.581 445,-280 463.442,-226.286 460.102,-209.971 483,-158 486.997,-148.929 491.645,-139.632 496.522,-130.566"/>
<ellipse fill="none" stroke="#b34ee6" cx="433.255" cy="-313.214" rx="4.00001" ry="4.00001"/>
<polygon fill="#b34ee6" stroke="#b34ee6" points="496.638,-130.354 505.402,-123.763 499.049,-125.974 501.459,-121.593 501.459,-121.593 501.459,-121.593 499.049,-125.974 497.517,-119.424 496.638,-130.354 496.638,-130.354"/>
</g>
<!-- Post -->
<g id="node7" class="node"><title>Post</title>
<path fill="none" stroke="black" d="M504,-158.5C504,-158.5 724,-158.5 724,-158.5 730,-158.5 736,-164.5 736,-170.5 736,-170.5 736,-267.5 736,-267.5 736,-273.5 730,-279.5 724,-279.5 724,-279.5 504,-279.5 504,-279.5 498,-279.5 492,-273.5 492,-267.5 492,-267.5 492,-170.5 492,-170.5 492,-164.5 498,-158.5 504,-158.5"/>
<text text-anchor="middle" x="614" y="-264.3" font-family="Times,serif" font-size="14.00">Post</text>
<polyline fill="none" stroke="black" points="492,-256.5 736,-256.5 "/>
<text text-anchor="start" x="500" y="-241.3" font-family="Times,serif" font-size="14.00">id :integer</text>
<text text-anchor="start" x="500" y="-226.3" font-family="Times,serif" font-size="14.00">title :character varying</text>
<text text-anchor="start" x="500" y="-211.3" font-family="Times,serif" font-size="14.00">content :text</text>
<text text-anchor="start" x="500" y="-196.3" font-family="Times,serif" font-size="14.00">created_at :timestamp without time zone</text>
<text text-anchor="start" x="500" y="-181.3" font-family="Times,serif" font-size="14.00">updated_at :timestamp without time zone</text>
<text text-anchor="start" x="500" y="-166.3" font-family="Times,serif" font-size="14.00">user_id :integer</text>
</g>
<!-- User&#45;&gt;Post -->
<g id="edge1" class="edge"><title>User&#45;&gt;Post</title>
<path fill="none" stroke="#af0cfc" d="M515.847,-311.173C524.867,-302.795 533.761,-294.534 542.292,-286.608"/>
<ellipse fill="none" stroke="#af0cfc" cx="512.664" cy="-314.13" rx="4.00002" ry="4.00002"/>
<polygon fill="#af0cfc" stroke="#af0cfc" points="542.364,-286.542 552.754,-283.033 546.028,-283.139 549.691,-279.736 549.691,-279.736 549.691,-279.736 546.028,-283.139 546.628,-276.439 542.364,-286.542 542.364,-286.542"/>
</g>
<!-- Chatroom&#45;&gt;Message -->
<g id="edge5" class="edge"><title>Chatroom&#45;&gt;Message</title>
<path fill="none" stroke="#b96fad" d="M264.654,-159.237C256.478,-149.5 247.943,-139.337 239.604,-129.407"/>
<ellipse fill="none" stroke="#b96fad" cx="267.442" cy="-162.557" rx="4.00002" ry="4.00002"/>
<polygon fill="#b96fad" stroke="#b96fad" points="239.4,-129.163 236.415,-118.612 236.185,-125.334 232.969,-121.505 232.969,-121.505 232.969,-121.505 236.185,-125.334 229.523,-124.399 239.4,-129.163 239.4,-129.163"/>
</g>
<!-- ApplicationRecord -->
<g id="node5" class="node"><title>ApplicationRecord</title>
<ellipse fill="none" stroke="black" cx="641" cy="-430" rx="77.0154" ry="18"/>
<text text-anchor="middle" x="641" y="-426.3" font-family="Times,serif" font-size="14.00">ApplicationRecord</text>
</g>
<!-- Post&#45;&gt;Comment -->
<g id="edge6" class="edge"><title>Post&#45;&gt;Comment</title>
<path fill="none" stroke="#0917d4" d="M581.688,-150.79C578.491,-144.141 575.243,-137.384 572.038,-130.72"/>
<ellipse fill="none" stroke="#0917d4" cx="583.484" cy="-154.527" rx="4.00002" ry="4.00002"/>
<polygon fill="#0917d4" stroke="#0917d4" points="572.038,-130.72 571.761,-119.757 569.872,-126.214 567.705,-121.707 567.705,-121.707 567.705,-121.707 569.872,-126.214 563.65,-123.657 572.038,-130.72 572.038,-130.72"/>
</g>
</g>
</svg>
